<svg xmlns="http://www.w3.org/2000/svg" version="1.1" xmlns:xlink="http://www.w3.org/1999/xlink" xmlns:svgjs="http://svgjs.dev/svgjs" width="2000" height="702" viewBox="0 0 2000 702"><g transform="matrix(1,0,0,1,-1.2121212121213603,0.9307287153835659)"><svg viewBox="0 0 396 139" data-background-color="#ffffff" preserveAspectRatio="xMidYMid meet" height="702" width="2000" xmlns="http://www.w3.org/2000/svg" xmlns:xlink="http://www.w3.org/1999/xlink"><g id="tight-bounds" transform="matrix(1,0,0,1,0.24000000000003752,-0.18428958894347147)"><svg viewBox="0 0 395.5199999999999 139.36857917788697" height="139.36857917788697" width="395.5199999999999"><g><svg viewBox="0 0 673.2944880598195 237.2474114310271" height="139.36857917788697" width="395.5199999999999"><g transform="matrix(1,0,0,1,0,32.78889694886121)"><svg viewBox="0 0 395.52 171.6696175333047" height="171.6696175333047" width="395.52"><g id="textblocktransform"><svg viewBox="0 0 395.52 171.6696175333047" height="171.6696175333047" width="395.52" id="textblock"><g><svg viewBox="0 0 395.52 171.6696175333047" height="171.6696175333047" width="395.52"><g transform="matrix(1,0,0,1,0,0)"><svg width="395.52" viewBox="1.7 -36.3 116.34 50.5" height="171.6696175333047" data-palette-color="#ff5858"><path d="M7.5-31.4Q6.5-31.4 6.03-31.28 5.55-31.15 5.2-30.8L5.2-30.8Q4.9-30.5 4.67-29.98 4.45-29.45 4.45-29L4.45-29 1.7-29.05Q1.8-31.4 3.2-32.8L3.2-32.8Q3.95-33.5 4.98-33.83 6-34.15 7.55-34.2L7.55-34.2 29.4-34.2 29.4-31.4 10.5-31.4 10.5-19.5 23.4-19.5 23.4-16.7 10.5-16.7 10.5-2.8 29.4-2.8 29.4 0 7.5 0 7.5-31.4ZM45.35-25.5Q46.85-25.5 48.35-25.05L48.35-25.05 48.35-22.25Q46.9-22.6 45.45-22.6L45.45-22.6Q42.9-22.6 41.3-21.35L41.3-21.35Q39.7-20.1 38.45-17.8L38.45-17.8 38.45 0 35.45 0 35.45-17.5Q35.45-21.45 33.35-23.3L33.35-23.3 35.35-25.3Q36.25-24.75 37.05-23.65 37.85-22.55 38.2-21.2L38.2-21.2Q39.6-23.5 41-24.35L41-24.35Q42.75-25.5 45.35-25.5L45.35-25.5ZM56.3-4.2Q56.3-3.5 56.77-3.03 57.25-2.55 57.9-2.55L57.9-2.55Q58.9-2.55 59.34-3.4L59.34-3.4 61.55-1.75Q61.15-0.9 60.15-0.33 59.15 0.25 57.9 0.25L57.9 0.25Q55.9 0.25 54.59-1 53.3-2.25 53.3-4.25L53.3-4.25 53.3-36.3 56.3-36.3 56.3-4.2ZM82.14-25L85.14-25 85.09-6.9 85.09 5.7Q85.09 9.55 83.04 11.88 80.99 14.2 77.59 14.2L77.59 14.2Q75.49 14.2 73.77 13.18 72.04 12.15 71.07 10.35 70.09 8.55 70.09 6.3L70.09 6.3Q70.09 4.25 70.87 2.65 71.64 1.05 72.99 0.35L72.99 0.35Q69.64 0.1 67.64-1.88 65.64-3.85 65.64-6.95L65.64-6.95 65.64-17.8Q65.64-21.75 63.54-23.6L63.54-23.6 65.54-25.6Q66.69-24.85 67.64-23.3 68.59-21.75 68.64-19.95L68.64-19.95 68.64-8.25Q68.64-5.3 69.97-3.85 71.29-2.4 73.99-2.4L73.99-2.4Q76.19-2.4 77.92-3.35 79.64-4.3 81.39-6.45L81.39-6.45Q81.79-7 81.94-7.43 82.09-7.85 82.09-8.6L82.09-8.6 82.14-25ZM82.09 5.9L82.19-3.9Q81.54-2.85 80.99-2.27 80.44-1.7 79.69-1.1L79.69-1.1Q78.34-0.15 76.69 0.75L76.69 0.75Q74.69 1.8 73.84 3.05 72.99 4.3 72.99 6.2L72.99 6.2Q72.99 8.55 74.22 9.93 75.44 11.3 77.54 11.3L77.54 11.3Q79.59 11.3 80.82 9.85 82.04 8.4 82.09 5.9L82.09 5.9ZM115.84-3.4L118.04-1.75Q117.64-0.9 116.64-0.33 115.64 0.25 114.39 0.25L114.39 0.25Q112.39 0.25 111.09-1 109.79-2.25 109.79-4.25L109.79-4.25 109.79-16.8Q109.79-22.8 104.39-22.8L104.39-22.8Q101.84-22.8 100.04-21.53 98.24-20.25 96.34-17.7L96.34-17.7 96.34 0 93.34 0 93.34-17.55Q93.34-21.5 91.24-23.35L91.24-23.35 93.24-25.35Q94.14-24.8 94.97-23.65 95.79-22.5 96.14-21.15L96.14-21.15Q97.84-23.45 99.92-24.48 101.99-25.5 104.64-25.5L104.64-25.5Q108.29-25.5 110.44-23.63 112.59-21.75 112.79-18.1L112.79-18.1 112.79-4.2Q112.79-3.5 113.27-3.03 113.74-2.55 114.39-2.55L114.39-2.55Q115.39-2.55 115.84-3.4L115.84-3.4Z" opacity="1" transform="matrix(1,0,0,1,0,0)" fill="#ff5858" class="wordmark-text-0" data-fill-palette-color="primary" id="text-0"></path></svg></g></svg></g></svg></g></svg></g><g transform="matrix(1,0,0,1,436.0470766287924,0)"><svg viewBox="0 0 237.2474114310271 237.2474114310271" height="237.2474114310271" width="237.2474114310271"><g data-palette-color="#ed2647"><rect width="64.84762579114741" height="237.2474114310271" fill="#ed2647" stroke="transparent" data-fill-palette-color="accent" x="0" fill-opacity="1"></rect><rect width="64.84762579114741" height="237.2474114310271" fill="#ed2647" stroke="transparent" data-fill-palette-color="accent" x="79.08247047700904" fill-opacity="0.75"></rect><rect width="64.84762579114741" height="237.2474114310271" fill="#ed2647" stroke="transparent" data-fill-palette-color="accent" x="158.16494095401808" fill-opacity="0.5"></rect></g></svg></g></svg></g><defs></defs></svg><rect width="395.5199999999999" height="139.36857917788697" fill="none" stroke="none" visibility="hidden"></rect></g></svg></g></svg>